0
SECTION
2
HEADER
9
$ACADVER
1
AC1009
0
ENDSEC
0
SECTION
2
ENTITIES
0
LINE
8
GRID
62
8
10
0.0
20
-1500.0
30
0.0
11
0.0
21
16500.0
31
0.0
0
CIRCLE
8
GRID
62
8
10
0.0
20
16900.0
30
0.0
40
400.0
0
TEXT
8
TEXT
62
7
10
0.0
20
16900.0
30
0.0
40
350.0
1
A
72
1
73
2
11
0.0
21
16900.0
31
0.0
0
LINE
8
GRID
62
8
10
5000.0
20
-1500.0
30
0.0
11
5000.0
21
16500.0
31
0.0
0
CIRCLE
8
GRID
62
8
10
5000.0
20
16900.0
30
0.0
40
400.0
0
TEXT
8
TEXT
62
7
10
5000.0
20
16900.0
30
0.0
40
350.0
1
B
72
1
73
2
11
5000.0
21
16900.0
31
0.0
0
LINE
8
GRID
62
8
10
10000.0
20
-1500.0
30
0.0
11
10000.0
21
16500.0
31
0.0
0
CIRCLE
8
GRID
62
8
10
10000.0
20
16900.0
30
0.0
40
400.0
0
TEXT
8
TEXT
62
7
10
10000.0
20
16900.0
30
0.0
40
350.0
1
C
72
1
73
2
11
10000.0
21
16900.0
31
0.0
0
LINE
8
GRID
62
8
10
15000.0
20
-1500.0
30
0.0
11
15000.0
21
16500.0
31
0.0
0
CIRCLE
8
GRID
62
8
10
15000.0
20
16900.0
30
0.0
40
400.0
0
TEXT
8
TEXT
62
7
10
15000.0
20
16900.0
30
0.0
40
350.0
1
D
72
1
73
2
11
15000.0
21
16900.0
31
0.0
0
LINE
8
GRID
62
8
10
20000.0
20
-1500.0
30
0.0
11
20000.0
21
16500.0
31
0.0
0
CIRCLE
8
GRID
62
8
10
20000.0
20
16900.0
30
0.0
40
400.0
0
TEXT
8
TEXT
62
7
10
20000.0
20
16900.0
30
0.0
40
350.0
1
E
72
1
73
2
11
20000.0
21
16900.0
31
0.0
0
LINE
8
GRID
62
8
10
-1500.0
20
0.0
30
0.0
11
21500.0
21
0.0
31
0.0
0
CIRCLE
8
GRID
62
8
10
-1900.0
20
0.0
30
0.0
40
400.0
0
TEXT
8
TEXT
62
7
10
-1900.0
20
0.0
30
0.0
40
350.0
1
1
72
1
73
2
11
-1900.0
21
0.0
31
0.0
0
LINE
8
GRID
62
8
10
-1500.0
20
5000.0
30
0.0
11
21500.0
21
5000.0
31
0.0
0
CIRCLE
8
GRID
62
8
10
-1900.0
20
5000.0
30
0.0
40
400.0
0
TEXT
8
TEXT
62
7
10
-1900.0
20
5000.0
30
0.0
40
350.0
1
2
72
1
73
2
11
-1900.0
21
5000.0
31
0.0
0
LINE
8
GRID
62
8
10
-1500.0
20
10000.0
30
0.0
11
21500.0
21
10000.0
31
0.0
0
CIRCLE
8
GRID
62
8
10
-1900.0
20
10000.0
30
0.0
40
400.0
0
TEXT
8
TEXT
62
7
10
-1900.0
20
10000.0
30
0.0
40
350.0
1
3
72
1
73
2
11
-1900.0
21
10000.0
31
0.0
0
LINE
8
GRID
62
8
10
-1500.0
20
15000.0
30
0.0
11
21500.0
21
15000.0
31
0.0
0
CIRCLE
8
GRID
62
8
10
-1900.0
20
15000.0
30
0.0
40
400.0
0
TEXT
8
TEXT
62
7
10
-1900.0
20
15000.0
30
0.0
40
350.0
1
4
72
1
73
2
11
-1900.0
21
15000.0
31
0.0
0
LINE
8
COLUMNS
62
1
10
-200.0
20
-200.0
30
0.0
11
200.0
21
-200.0
31
0.0
0
LINE
8
COLUMNS
62
1
10
200.0
20
-200.0
30
0.0
11
200.0
21
200.0
31
0.0
0
LINE
8
COLUMNS
62
1
10
200.0
20
200.0
30
0.0
11
-200.0
21
200.0
31
0.0
0
LINE
8
COLUMNS
62
1
10
-200.0
20
200.0
30
0.0
11
-200.0
21
-200.0
31
0.0
0
LINE
8
COLUMNS
62
1
10
-200.0
20
4800.0
30
0.0
11
200.0
21
4800.0
31
0.0
0
LINE
8
COLUMNS
62
1
10
200.0
20
4800.0
30
0.0
11
200.0
21
5200.0
31
0.0
0
LINE
8
COLUMNS
62
1
10
200.0
20
5200.0
30
0.0
11
-200.0
21
5200.0
31
0.0
0
LINE
8
COLUMNS
62
1
10
-200.0
20
5200.0
30
0.0
11
-200.0
21
4800.0
31
0.0
0
LINE
8
COLUMNS
62
1
10
-200.0
20
9800.0
30
0.0
11
200.0
21
9800.0
31
0.0
0
LINE
8
COLUMNS
62
1
10
200.0
20
9800.0
30
0.0
11
200.0
21
10200.0
31
0.0
0
LINE
8
COLUMNS
62
1
10
200.0
20
10200.0
30
0.0
11
-200.0
21
10200.0
31
0.0
0
LINE
8
COLUMNS
62
1
10
-200.0
20
10200.0
30
0.0
11
-200.0
21
9800.0
31
0.0
0
LINE
8
COLUMNS
62
1
10
-200.0
20
14800.0
30
0.0
11
200.0
21
14800.0
31
0.0
0
LINE
8
COLUMNS
62
1
10
200.0
20
14800.0
30
0.0
11
200.0
21
15200.0
31
0.0
0
LINE
8
COLUMNS
62
1
10
200.0
20
15200.0
30
0.0
11
-200.0
21
15200.0
31
0.0
0
LINE
8
COLUMNS
62
1
10
-200.0
20
15200.0
30
0.0
11
-200.0
21
14800.0
31
0.0
0
LINE
8
COLUMNS
62
1
10
4800.0
20
-200.0
30
0.0
11
5200.0
21
-200.0
31
0.0
0
LINE
8
COLUMNS
62
1
10
5200.0
20
-200.0
30
0.0
11
5200.0
21
200.0
31
0.0
0
LINE
8
COLUMNS
62
1
10
5200.0
20
200.0
30
0.0
11
4800.0
21
200.0
31
0.0
0
LINE
8
COLUMNS
62
1
10
4800.0
20
200.0
30
0.0
11
4800.0
21
-200.0
31
0.0
0
LINE
8
COLUMNS
62
1
10
4800.0
20
4800.0
30
0.0
11
5200.0
21
4800.0
31
0.0
0
LINE
8
COLUMNS
62
1
10
5200.0
20
4800.0
30
0.0
11
5200.0
21
5200.0
31
0.0
0
LINE
8
COLUMNS
62
1
10
5200.0
20
5200.0
30
0.0
11
4800.0
21
5200.0
31
0.0
0
LINE
8
COLUMNS
62
1
10
4800.0
20
5200.0
30
0.0
11
4800.0
21
4800.0
31
0.0
0
LINE
8
COLUMNS
62
1
10
4800.0
20
9800.0
30
0.0
11
5200.0
21
9800.0
31
0.0
0
LINE
8
COLUMNS
62
1
10
5200.0
20
9800.0
30
0.0
11
5200.0
21
10200.0
31
0.0
0
LINE
8
COLUMNS
62
1
10
5200.0
20
10200.0
30
0.0
11
4800.0
21
10200.0
31
0.0
0
LINE
8
COLUMNS
62
1
10
4800.0
20
10200.0
30
0.0
11
4800.0
21
9800.0
31
0.0
0
LINE
8
COLUMNS
62
1
10
4800.0
20
14800.0
30
0.0
11
5200.0
21
14800.0
31
0.0
0
LINE
8
COLUMNS
62
1
10
5200.0
20
14800.0
30
0.0
11
5200.0
21
15200.0
31
0.0
0
LINE
8
COLUMNS
62
1
10
5200.0
20
15200.0
30
0.0
11
4800.0
21
15200.0
31
0.0
0
LINE
8
COLUMNS
62
1
10
4800.0
20
15200.0
30
0.0
11
4800.0
21
14800.0
31
0.0
0
LINE
8
COLUMNS
62
1
10
9800.0
20
-200.0
30
0.0
11
10200.0
21
-200.0
31
0.0
0
LINE
8
COLUMNS
62
1
10
10200.0
20
-200.0
30
0.0
11
10200.0
21
200.0
31
0.0
0
LINE
8
COLUMNS
62
1
10
10200.0
20
200.0
30
0.0
11
9800.0
21
200.0
31
0.0
0
LINE
8
COLUMNS
62
1
10
9800.0
20
200.0
30
0.0
11
9800.0
21
-200.0
31
0.0
0
LINE
8
COLUMNS
62
1
10
9800.0
20
4800.0
30
0.0
11
10200.0
21
4800.0
31
0.0
0
LINE
8
COLUMNS
62
1
10
10200.0
20
4800.0
30
0.0
11
10200.0
21
5200.0
31
0.0
0
LINE
8
COLUMNS
62
1
10
10200.0
20
5200.0
30
0.0
11
9800.0
21
5200.0
31
0.0
0
LINE
8
COLUMNS
62
1
10
9800.0
20
5200.0
30
0.0
11
9800.0
21
4800.0
31
0.0
0
LINE
8
COLUMNS
62
1
10
9800.0
20
9800.0
30
0.0
11
10200.0
21
9800.0
31
0.0
0
LINE
8
COLUMNS
62
1
10
10200.0
20
9800.0
30
0.0
11
10200.0
21
10200.0
31
0.0
0
LINE
8
COLUMNS
62
1
10
10200.0
20
10200.0
30
0.0
11
9800.0
21
10200.0
31
0.0
0
LINE
8
COLUMNS
62
1
10
9800.0
20
10200.0
30
0.0
11
9800.0
21
9800.0
31
0.0
0
LINE
8
COLUMNS
62
1
10
9800.0
20
14800.0
30
0.0
11
10200.0
21
14800.0
31
0.0
0
LINE
8
COLUMNS
62
1
10
10200.0
20
14800.0
30
0.0
11
10200.0
21
15200.0
31
0.0
0
LINE
8
COLUMNS
62
1
10
10200.0
20
15200.0
30
0.0
11
9800.0
21
15200.0
31
0.0
0
LINE
8
COLUMNS
62
1
10
9800.0
20
15200.0
30
0.0
11
9800.0
21
14800.0
31
0.0
0
LINE
8
COLUMNS
62
1
10
14800.0
20
-200.0
30
0.0
11
15200.0
21
-200.0
31
0.0
0
LINE
8
COLUMNS
62
1
10
15200.0
20
-200.0
30
0.0
11
15200.0
21
200.0
31
0.0
0
LINE
8
COLUMNS
62
1
10
15200.0
20
200.0
30
0.0
11
14800.0
21
200.0
31
0.0
0
LINE
8
COLUMNS
62
1
10
14800.0
20
200.0
30
0.0
11
14800.0
21
-200.0
31
0.0
0
LINE
8
COLUMNS
62
1
10
14800.0
20
4800.0
30
0.0
11
15200.0
21
4800.0
31
0.0
0
LINE
8
COLUMNS
62
1
10
15200.0
20
4800.0
30
0.0
11
15200.0
21
5200.0
31
0.0
0
LINE
8
COLUMNS
62
1
10
15200.0
20
5200.0
30
0.0
11
14800.0
21
5200.0
31
0.0
0
LINE
8
COLUMNS
62
1
10
14800.0
20
5200.0
30
0.0
11
14800.0
21
4800.0
31
0.0
0
LINE
8
COLUMNS
62
1
10
14800.0
20
9800.0
30
0.0
11
15200.0
21
9800.0
31
0.0
0
LINE
8
COLUMNS
62
1
10
15200.0
20
9800.0
30
0.0
11
15200.0
21
10200.0
31
0.0
0
LINE
8
COLUMNS
62
1
10
15200.0
20
10200.0
30
0.0
11
14800.0
21
10200.0
31
0.0
0
LINE
8
COLUMNS
62
1
10
14800.0
20
10200.0
30
0.0
11
14800.0
21
9800.0
31
0.0
0
LINE
8
COLUMNS
62
1
10
14800.0
20
14800.0
30
0.0
11
15200.0
21
14800.0
31
0.0
0
LINE
8
COLUMNS
62
1
10
15200.0
20
14800.0
30
0.0
11
15200.0
21
15200.0
31
0.0
0
LINE
8
COLUMNS
62
1
10
15200.0
20
15200.0
30
0.0
11
14800.0
21
15200.0
31
0.0
0
LINE
8
COLUMNS
62
1
10
14800.0
20
15200.0
30
0.0
11
14800.0
21
14800.0
31
0.0
0
LINE
8
COLUMNS
62
1
10
19800.0
20
-200.0
30
0.0
11
20200.0
21
-200.0
31
0.0
0
LINE
8
COLUMNS
62
1
10
20200.0
20
-200.0
30
0.0
11
20200.0
21
200.0
31
0.0
0
LINE
8
COLUMNS
62
1
10
20200.0
20
200.0
30
0.0
11
19800.0
21
200.0
31
0.0
0
LINE
8
COLUMNS
62
1
10
19800.0
20
200.0
30
0.0
11
19800.0
21
-200.0
31
0.0
0
LINE
8
COLUMNS
62
1
10
19800.0
20
4800.0
30
0.0
11
20200.0
21
4800.0
31
0.0
0
LINE
8
COLUMNS
62
1
10
20200.0
20
4800.0
30
0.0
11
20200.0
21
5200.0
31
0.0
0
LINE
8
COLUMNS
62
1
10
20200.0
20
5200.0
30
0.0
11
19800.0
21
5200.0
31
0.0
0
LINE
8
COLUMNS
62
1
10
19800.0
20
5200.0
30
0.0
11
19800.0
21
4800.0
31
0.0
0
LINE
8
COLUMNS
62
1
10
19800.0
20
9800.0
30
0.0
11
20200.0
21
9800.0
31
0.0
0
LINE
8
COLUMNS
62
1
10
20200.0
20
9800.0
30
0.0
11
20200.0
21
10200.0
31
0.0
0
LINE
8
COLUMNS
62
1
10
20200.0
20
10200.0
30
0.0
11
19800.0
21
10200.0
31
0.0
0
LINE
8
COLUMNS
62
1
10
19800.0
20
10200.0
30
0.0
11
19800.0
21
9800.0
31
0.0
0
LINE
8
COLUMNS
62
1
10
19800.0
20
14800.0
30
0.0
11
20200.0
21
14800.0
31
0.0
0
LINE
8
COLUMNS
62
1
10
20200.0
20
14800.0
30
0.0
11
20200.0
21
15200.0
31
0.0
0
LINE
8
COLUMNS
62
1
10
20200.0
20
15200.0
30
0.0
11
19800.0
21
15200.0
31
0.0
0
LINE
8
COLUMNS
62
1
10
19800.0
20
15200.0
30
0.0
11
19800.0
21
14800.0
31
0.0
0
LINE
8
BEAMS
62
5
10
200.0
20
-150.0
30
0.0
11
4800.0
21
-150.0
31
0.0
0
LINE
8
BEAMS
62
5
10
200.0
20
150.0
30
0.0
11
4800.0
21
150.0
31
0.0
0
LINE
8
BEAMS
62
5
10
5200.0
20
-150.0
30
0.0
11
9800.0
21
-150.0
31
0.0
0
LINE
8
BEAMS
62
5
10
5200.0
20
150.0
30
0.0
11
9800.0
21
150.0
31
0.0
0
LINE
8
BEAMS
62
5
10
10200.0
20
-150.0
30
0.0
11
14800.0
21
-150.0
31
0.0
0
LINE
8
BEAMS
62
5
10
10200.0
20
150.0
30
0.0
11
14800.0
21
150.0
31
0.0
0
LINE
8
BEAMS
62
5
10
15200.0
20
-150.0
30
0.0
11
19800.0
21
-150.0
31
0.0
0
LINE
8
BEAMS
62
5
10
15200.0
20
150.0
30
0.0
11
19800.0
21
150.0
31
0.0
0
LINE
8
BEAMS
62
5
10
200.0
20
4850.0
30
0.0
11
4800.0
21
4850.0
31
0.0
0
LINE
8
BEAMS
62
5
10
200.0
20
5150.0
30
0.0
11
4800.0
21
5150.0
31
0.0
0
LINE
8
BEAMS
62
5
10
5200.0
20
4850.0
30
0.0
11
9800.0
21
4850.0
31
0.0
0
LINE
8
BEAMS
62
5
10
5200.0
20
5150.0
30
0.0
11
9800.0
21
5150.0
31
0.0
0
LINE
8
BEAMS
62
5
10
10200.0
20
4850.0
30
0.0
11
14800.0
21
4850.0
31
0.0
0
LINE
8
BEAMS
62
5
10
10200.0
20
5150.0
30
0.0
11
14800.0
21
5150.0
31
0.0
0
LINE
8
BEAMS
62
5
10
15200.0
20
4850.0
30
0.0
11
19800.0
21
4850.0
31
0.0
0
LINE
8
BEAMS
62
5
10
15200.0
20
5150.0
30
0.0
11
19800.0
21
5150.0
31
0.0
0
LINE
8
BEAMS
62
5
10
200.0
20
9850.0
30
0.0
11
4800.0
21
9850.0
31
0.0
0
LINE
8
BEAMS
62
5
10
200.0
20
10150.0
30
0.0
11
4800.0
21
10150.0
31
0.0
0
LINE
8
BEAMS
62
5
10
5200.0
20
9850.0
30
0.0
11
9800.0
21
9850.0
31
0.0
0
LINE
8
BEAMS
62
5
10
5200.0
20
10150.0
30
0.0
11
9800.0
21
10150.0
31
0.0
0
LINE
8
BEAMS
62
5
10
10200.0
20
9850.0
30
0.0
11
14800.0
21
9850.0
31
0.0
0
LINE
8
BEAMS
62
5
10
10200.0
20
10150.0
30
0.0
11
14800.0
21
10150.0
31
0.0
0
LINE
8
BEAMS
62
5
10
15200.0
20
9850.0
30
0.0
11
19800.0
21
9850.0
31
0.0
0
LINE
8
BEAMS
62
5
10
15200.0
20
10150.0
30
0.0
11
19800.0
21
10150.0
31
0.0
0
LINE
8
BEAMS
62
5
10
200.0
20
14850.0
30
0.0
11
4800.0
21
14850.0
31
0.0
0
LINE
8
BEAMS
62
5
10
200.0
20
15150.0
30
0.0
11
4800.0
21
15150.0
31
0.0
0
LINE
8
BEAMS
62
5
10
5200.0
20
14850.0
30
0.0
11
9800.0
21
14850.0
31
0.0
0
LINE
8
BEAMS
62
5
10
5200.0
20
15150.0
30
0.0
11
9800.0
21
15150.0
31
0.0
0
LINE
8
BEAMS
62
5
10
10200.0
20
14850.0
30
0.0
11
14800.0
21
14850.0
31
0.0
0
LINE
8
BEAMS
62
5
10
10200.0
20
15150.0
30
0.0
11
14800.0
21
15150.0
31
0.0
0
LINE
8
BEAMS
62
5
10
15200.0
20
14850.0
30
0.0
11
19800.0
21
14850.0
31
0.0
0
LINE
8
BEAMS
62
5
10
15200.0
20
15150.0
30
0.0
11
19800.0
21
15150.0
31
0.0
0
LINE
8
BEAMS
62
5
10
-150.0
20
200.0
30
0.0
11
-150.0
21
4800.0
31
0.0
0
LINE
8
BEAMS
62
5
10
150.0
20
200.0
30
0.0
11
150.0
21
4800.0
31
0.0
0
LINE
8
BEAMS
62
5
10
-150.0
20
5200.0
30
0.0
11
-150.0
21
9800.0
31
0.0
0
LINE
8
BEAMS
62
5
10
150.0
20
5200.0
30
0.0
11
150.0
21
9800.0
31
0.0
0
LINE
8
BEAMS
62
5
10
-150.0
20
10200.0
30
0.0
11
-150.0
21
14800.0
31
0.0
0
LINE
8
BEAMS
62
5
10
150.0
20
10200.0
30
0.0
11
150.0
21
14800.0
31
0.0
0
LINE
8
BEAMS
62
5
10
4850.0
20
200.0
30
0.0
11
4850.0
21
4800.0
31
0.0
0
LINE
8
BEAMS
62
5
10
5150.0
20
200.0
30
0.0
11
5150.0
21
4800.0
31
0.0
0
LINE
8
BEAMS
62
5
10
4850.0
20
5200.0
30
0.0
11
4850.0
21
9800.0
31
0.0
0
LINE
8
BEAMS
62
5
10
5150.0
20
5200.0
30
0.0
11
5150.0
21
9800.0
31
0.0
0
LINE
8
BEAMS
62
5
10
4850.0
20
10200.0
30
0.0
11
4850.0
21
14800.0
31
0.0
0
LINE
8
BEAMS
62
5
10
5150.0
20
10200.0
30
0.0
11
5150.0
21
14800.0
31
0.0
0
LINE
8
BEAMS
62
5
10
9850.0
20
200.0
30
0.0
11
9850.0
21
4800.0
31
0.0
0
LINE
8
BEAMS
62
5
10
10150.0
20
200.0
30
0.0
11
10150.0
21
4800.0
31
0.0
0
LINE
8
BEAMS
62
5
10
9850.0
20
5200.0
30
0.0
11
9850.0
21
9800.0
31
0.0
0
LINE
8
BEAMS
62
5
10
10150.0
20
5200.0
30
0.0
11
10150.0
21
9800.0
31
0.0
0
LINE
8
BEAMS
62
5
10
9850.0
20
10200.0
30
0.0
11
9850.0
21
14800.0
31
0.0
0
LINE
8
BEAMS
62
5
10
10150.0
20
10200.0
30
0.0
11
10150.0
21
14800.0
31
0.0
0
LINE
8
BEAMS
62
5
10
14850.0
20
200.0
30
0.0
11
14850.0
21
4800.0
31
0.0
0
LINE
8
BEAMS
62
5
10
15150.0
20
200.0
30
0.0
11
15150.0
21
4800.0
31
0.0
0
LINE
8
BEAMS
62
5
10
14850.0
20
5200.0
30
0.0
11
14850.0
21
9800.0
31
0.0
0
LINE
8
BEAMS
62
5
10
15150.0
20
5200.0
30
0.0
11
15150.0
21
9800.0
31
0.0
0
LINE
8
BEAMS
62
5
10
14850.0
20
10200.0
30
0.0
11
14850.0
21
14800.0
31
0.0
0
LINE
8
BEAMS
62
5
10
15150.0
20
10200.0
30
0.0
11
15150.0
21
14800.0
31
0.0
0
LINE
8
BEAMS
62
5
10
19850.0
20
200.0
30
0.0
11
19850.0
21
4800.0
31
0.0
0
LINE
8
BEAMS
62
5
10
20150.0
20
200.0
30
0.0
11
20150.0
21
4800.0
31
0.0
0
LINE
8
BEAMS
62
5
10
19850.0
20
5200.0
30
0.0
11
19850.0
21
9800.0
31
0.0
0
LINE
8
BEAMS
62
5
10
20150.0
20
5200.0
30
0.0
11
20150.0
21
9800.0
31
0.0
0
LINE
8
BEAMS
62
5
10
19850.0
20
10200.0
30
0.0
11
19850.0
21
14800.0
31
0.0
0
LINE
8
BEAMS
62
5
10
20150.0
20
10200.0
30
0.0
11
20150.0
21
14800.0
31
0.0
0
LINE
8
DIMENSIONS
62
3
10
0.0
20
-2400.0
30
0.0
11
5000.0
21
-2400.0
31
0.0
0
LINE
8
DIMENSIONS
62
3
10
0.0
20
-2650.0
30
0.0
11
0.0
21
-2150.0
31
0.0
0
LINE
8
DIMENSIONS
62
3
10
-150.0
20
-2550.0
30
0.0
11
150.0
21
-2250.0
31
0.0
0
LINE
8
DIMENSIONS
62
3
10
5000.0
20
-2650.0
30
0.0
11
5000.0
21
-2150.0
31
0.0
0
LINE
8
DIMENSIONS
62
3
10
4850.0
20
-2550.0
30
0.0
11
5150.0
21
-2250.0
31
0.0
0
TEXT
8
DIMENSIONS
62
3
10
2500.0
20
-2050.0
30
0.0
40
250.0
1
5000
72
1
73
2
11
2500.0
21
-2050.0
31
0.0
0
LINE
8
DIMENSIONS
62
3
10
5000.0
20
-2400.0
30
0.0
11
10000.0
21
-2400.0
31
0.0
0
LINE
8
DIMENSIONS
62
3
10
5000.0
20
-2650.0
30
0.0
11
5000.0
21
-2150.0
31
0.0
0
LINE
8
DIMENSIONS
62
3
10
4850.0
20
-2550.0
30
0.0
11
5150.0
21
-2250.0
31
0.0
0
LINE
8
DIMENSIONS
62
3
10
10000.0
20
-2650.0
30
0.0
11
10000.0
21
-2150.0
31
0.0
0
LINE
8
DIMENSIONS
62
3
10
9850.0
20
-2550.0
30
0.0
11
10150.0
21
-2250.0
31
0.0
0
TEXT
8
DIMENSIONS
62
3
10
7500.0
20
-2050.0
30
0.0
40
250.0
1
5000
72
1
73
2
11
7500.0
21
-2050.0
31
0.0
0
LINE
8
DIMENSIONS
62
3
10
10000.0
20
-2400.0
30
0.0
11
15000.0
21
-2400.0
31
0.0
0
LINE
8
DIMENSIONS
62
3
10
10000.0
20
-2650.0
30
0.0
11
10000.0
21
-2150.0
31
0.0
0
LINE
8
DIMENSIONS
62
3
10
9850.0
20
-2550.0
30
0.0
11
10150.0
21
-2250.0
31
0.0
0
LINE
8
DIMENSIONS
62
3
10
15000.0
20
-2650.0
30
0.0
11
15000.0
21
-2150.0
31
0.0
0
LINE
8
DIMENSIONS
62
3
10
14850.0
20
-2550.0
30
0.0
11
15150.0
21
-2250.0
31
0.0
0
TEXT
8
DIMENSIONS
62
3
10
12500.0
20
-2050.0
30
0.0
40
250.0
1
5000
72
1
73
2
11
12500.0
21
-2050.0
31
0.0
0
LINE
8
DIMENSIONS
62
3
10
15000.0
20
-2400.0
30
0.0
11
20000.0
21
-2400.0
31
0.0
0
LINE
8
DIMENSIONS
62
3
10
15000.0
20
-2650.0
30
0.0
11
15000.0
21
-2150.0
31
0.0
0
LINE
8
DIMENSIONS
62
3
10
14850.0
20
-2550.0
30
0.0
11
15150.0
21
-2250.0
31
0.0
0
LINE
8
DIMENSIONS
62
3
10
20000.0
20
-2650.0
30
0.0
11
20000.0
21
-2150.0
31
0.0
0
LINE
8
DIMENSIONS
62
3
10
19850.0
20
-2550.0
30
0.0
11
20150.0
21
-2250.0
31
0.0
0
TEXT
8
DIMENSIONS
62
3
10
17500.0
20
-2050.0
30
0.0
40
250.0
1
5000
72
1
73
2
11
17500.0
21
-2050.0
31
0.0
0
LINE
8
DIMENSIONS
62
3
10
0.0
20
-3600.0
30
0.0
11
20000.0
21
-3600.0
31
0.0
0
LINE
8
DIMENSIONS
62
3
10
0.0
20
-3850.0
30
0.0
11
0.0
21
-3350.0
31
0.0
0
LINE
8
DIMENSIONS
62
3
10
-150.0
20
-3750.0
30
0.0
11
150.0
21
-3450.0
31
0.0
0
LINE
8
DIMENSIONS
62
3
10
20000.0
20
-3850.0
30
0.0
11
20000.0
21
-3350.0
31
0.0
0
LINE
8
DIMENSIONS
62
3
10
19850.0
20
-3750.0
30
0.0
11
20150.0
21
-3450.0
31
0.0
0
TEXT
8
DIMENSIONS
62
3
10
10000.0
20
-3250.0
30
0.0
40
250.0
1
20000
72
1
73
2
11
10000.0
21
-3250.0
31
0.0
0
LINE
8
DIMENSIONS
62
3
10
22400.0
20
0.0
30
0.0
11
22400.0
21
5000.0
31
0.0
0
LINE
8
DIMENSIONS
62
3
10
22150.0
20
0.0
30
0.0
11
22650.0
21
0.0
31
0.0
0
LINE
8
DIMENSIONS
62
3
10
22250.0
20
-150.0
30
0.0
11
22550.0
21
150.0
31
0.0
0
LINE
8
DIMENSIONS
62
3
10
22150.0
20
5000.0
30
0.0
11
22650.0
21
5000.0
31
0.0
0
LINE
8
DIMENSIONS
62
3
10
22250.0
20
4850.0
30
0.0
11
22550.0
21
5150.0
31
0.0
0
TEXT
8
DIMENSIONS
62
3
10
21950.0
20
2500.0
30
0.0
40
250.0
1
5000
72
1
73
2
11
21950.0
21
2500.0
31
0.0
0
LINE
8
DIMENSIONS
62
3
10
22400.0
20
5000.0
30
0.0
11
22400.0
21
10000.0
31
0.0
0
LINE
8
DIMENSIONS
62
3
10
22150.0
20
5000.0
30
0.0
11
22650.0
21
5000.0
31
0.0
0
LINE
8
DIMENSIONS
62
3
10
22250.0
20
4850.0
30
0.0
11
22550.0
21
5150.0
31
0.0
0
LINE
8
DIMENSIONS
62
3
10
22150.0
20
10000.0
30
0.0
11
22650.0
21
10000.0
31
0.0
0
LINE
8
DIMENSIONS
62
3
10
22250.0
20
9850.0
30
0.0
11
22550.0
21
10150.0
31
0.0
0
TEXT
8
DIMENSIONS
62
3
10
21950.0
20
7500.0
30
0.0
40
250.0
1
5000
72
1
73
2
11
21950.0
21
7500.0
31
0.0
0
LINE
8
DIMENSIONS
62
3
10
22400.0
20
10000.0
30
0.0
11
22400.0
21
15000.0
31
0.0
0
LINE
8
DIMENSIONS
62
3
10
22150.0
20
10000.0
30
0.0
11
22650.0
21
10000.0
31
0.0
0
LINE
8
DIMENSIONS
62
3
10
22250.0
20
9850.0
30
0.0
11
22550.0
21
10150.0
31
0.0
0
LINE
8
DIMENSIONS
62
3
10
22150.0
20
15000.0
30
0.0
11
22650.0
21
15000.0
31
0.0
0
LINE
8
DIMENSIONS
62
3
10
22250.0
20
14850.0
30
0.0
11
22550.0
21
15150.0
31
0.0
0
TEXT
8
DIMENSIONS
62
3
10
21950.0
20
12500.0
30
0.0
40
250.0
1
5000
72
1
73
2
11
21950.0
21
12500.0
31
0.0
0
LINE
8
DIMENSIONS
62
3
10
23600.0
20
0.0
30
0.0
11
23600.0
21
15000.0
31
0.0
0
LINE
8
DIMENSIONS
62
3
10
23350.0
20
0.0
30
0.0
11
23850.0
21
0.0
31
0.0
0
LINE
8
DIMENSIONS
62
3
10
23450.0
20
-150.0
30
0.0
11
23750.0
21
150.0
31
0.0
0
LINE
8
DIMENSIONS
62
3
10
23350.0
20
15000.0
30
0.0
11
23850.0
21
15000.0
31
0.0
0
LINE
8
DIMENSIONS
62
3
10
23450.0
20
14850.0
30
0.0
11
23750.0
21
15150.0
31
0.0
0
TEXT
8
DIMENSIONS
62
3
10
23150.0
20
7500.0
30
0.0
40
250.0
1
15000
72
1
73
2
11
23150.0
21
7500.0
31
0.0
0
TEXT
8
TEXT
62
7
10
0.0
20
-5200.0
30
0.0
40
500.0
1
TYPICAL FLOOR PLAN
0
TEXT
8
TEXT
62
7
10
0.0
20
-6000.0
30
0.0
40
300.0
1
Columns 400 x 400, beams 300 x 450, M25 / Fe500. All dimensions in mm.
0
LINE
8
COLUMNS
62
1
10
32800.0
20
0.0
30
0.0
11
32800.0
21
19200.0
31
0.0
0
LINE
8
COLUMNS
62
1
10
33200.0
20
0.0
30
0.0
11
33200.0
21
19200.0
31
0.0
0
LINE
8
GRID
62
8
10
33000.0
20
-1500.0
30
0.0
11
33000.0
21
20700.0
31
0.0
0
CIRCLE
8
GRID
62
8
10
33000.0
20
21100.0
30
0.0
40
400.0
0
TEXT
8
TEXT
62
7
10
33000.0
20
21100.0
30
0.0
40
350.0
1
A
72
1
73
2
11
33000.0
21
21100.0
31
0.0
0
LINE
8
COLUMNS
62
1
10
37800.0
20
0.0
30
0.0
11
37800.0
21
19200.0
31
0.0
0
LINE
8
COLUMNS
62
1
10
38200.0
20
0.0
30
0.0
11
38200.0
21
19200.0
31
0.0
0
LINE
8
GRID
62
8
10
38000.0
20
-1500.0
30
0.0
11
38000.0
21
20700.0
31
0.0
0
CIRCLE
8
GRID
62
8
10
38000.0
20
21100.0
30
0.0
40
400.0
0
TEXT
8
TEXT
62
7
10
38000.0
20
21100.0
30
0.0
40
350.0
1
B
72
1
73
2
11
38000.0
21
21100.0
31
0.0
0
LINE
8
COLUMNS
62
1
10
42800.0
20
0.0
30
0.0
11
42800.0
21
19200.0
31
0.0
0
LINE
8
COLUMNS
62
1
10
43200.0
20
0.0
30
0.0
11
43200.0
21
19200.0
31
0.0
0
LINE
8
GRID
62
8
10
43000.0
20
-1500.0
30
0.0
11
43000.0
21
20700.0
31
0.0
0
CIRCLE
8
GRID
62
8
10
43000.0
20
21100.0
30
0.0
40
400.0
0
TEXT
8
TEXT
62
7
10
43000.0
20
21100.0
30
0.0
40
350.0
1
C
72
1
73
2
11
43000.0
21
21100.0
31
0.0
0
LINE
8
COLUMNS
62
1
10
47800.0
20
0.0
30
0.0
11
47800.0
21
19200.0
31
0.0
0
LINE
8
COLUMNS
62
1
10
48200.0
20
0.0
30
0.0
11
48200.0
21
19200.0
31
0.0
0
LINE
8
GRID
62
8
10
48000.0
20
-1500.0
30
0.0
11
48000.0
21
20700.0
31
0.0
0
CIRCLE
8
GRID
62
8
10
48000.0
20
21100.0
30
0.0
40
400.0
0
TEXT
8
TEXT
62
7
10
48000.0
20
21100.0
30
0.0
40
350.0
1
D
72
1
73
2
11
48000.0
21
21100.0
31
0.0
0
LINE
8
COLUMNS
62
1
10
52800.0
20
0.0
30
0.0
11
52800.0
21
19200.0
31
0.0
0
LINE
8
COLUMNS
62
1
10
53200.0
20
0.0
30
0.0
11
53200.0
21
19200.0
31
0.0
0
LINE
8
GRID
62
8
10
53000.0
20
-1500.0
30
0.0
11
53000.0
21
20700.0
31
0.0
0
CIRCLE
8
GRID
62
8
10
53000.0
20
21100.0
30
0.0
40
400.0
0
TEXT
8
TEXT
62
7
10
53000.0
20
21100.0
30
0.0
40
350.0
1
E
72
1
73
2
11
53000.0
21
21100.0
31
0.0
0
LINE
8
BEAMS
62
5
10
33200.0
20
3200.0
30
0.0
11
37800.0
21
3200.0
31
0.0
0
LINE
8
BEAMS
62
5
10
33200.0
20
2750.0
30
0.0
11
37800.0
21
2750.0
31
0.0
0
LINE
8
BEAMS
62
5
10
38200.0
20
3200.0
30
0.0
11
42800.0
21
3200.0
31
0.0
0
LINE
8
BEAMS
62
5
10
38200.0
20
2750.0
30
0.0
11
42800.0
21
2750.0
31
0.0
0
LINE
8
BEAMS
62
5
10
43200.0
20
3200.0
30
0.0
11
47800.0
21
3200.0
31
0.0
0
LINE
8
BEAMS
62
5
10
43200.0
20
2750.0
30
0.0
11
47800.0
21
2750.0
31
0.0
0
LINE
8
BEAMS
62
5
10
48200.0
20
3200.0
30
0.0
11
52800.0
21
3200.0
31
0.0
0
LINE
8
BEAMS
62
5
10
48200.0
20
2750.0
30
0.0
11
52800.0
21
2750.0
31
0.0
0
TEXT
8
TEXT
62
7
10
54500.0
20
3200.0
30
0.0
40
250.0
1
+3.200
0
LINE
8
BEAMS
62
5
10
33200.0
20
6400.0
30
0.0
11
37800.0
21
6400.0
31
0.0
0
LINE
8
BEAMS
62
5
10
33200.0
20
5950.0
30
0.0
11
37800.0
21
5950.0
31
0.0
0
LINE
8
BEAMS
62
5
10
38200.0
20
6400.0
30
0.0
11
42800.0
21
6400.0
31
0.0
0
LINE
8
BEAMS
62
5
10
38200.0
20
5950.0
30
0.0
11
42800.0
21
5950.0
31
0.0
0
LINE
8
BEAMS
62
5
10
43200.0
20
6400.0
30
0.0
11
47800.0
21
6400.0
31
0.0
0
LINE
8
BEAMS
62
5
10
43200.0
20
5950.0
30
0.0
11
47800.0
21
5950.0
31
0.0
0
LINE
8
BEAMS
62
5
10
48200.0
20
6400.0
30
0.0
11
52800.0
21
6400.0
31
0.0
0
LINE
8
BEAMS
62
5
10
48200.0
20
5950.0
30
0.0
11
52800.0
21
5950.0
31
0.0
0
TEXT
8
TEXT
62
7
10
54500.0
20
6400.0
30
0.0
40
250.0
1
+6.400
0
LINE
8
BEAMS
62
5
10
33200.0
20
9600.0
30
0.0
11
37800.0
21
9600.0
31
0.0
0
LINE
8
BEAMS
62
5
10
33200.0
20
9150.0
30
0.0
11
37800.0
21
9150.0
31
0.0
0
LINE
8
BEAMS
62
5
10
38200.0
20
9600.0
30
0.0
11
42800.0
21
9600.0
31
0.0
0
LINE
8
BEAMS
62
5
10
38200.0
20
9150.0
30
0.0
11
42800.0
21
9150.0
31
0.0
0
LINE
8
BEAMS
62
5
10
43200.0
20
9600.0
30
0.0
11
47800.0
21
9600.0
31
0.0
0
LINE
8
BEAMS
62
5
10
43200.0
20
9150.0
30
0.0
11
47800.0
21
9150.0
31
0.0
0
LINE
8
BEAMS
62
5
10
48200.0
20
9600.0
30
0.0
11
52800.0
21
9600.0
31
0.0
0
LINE
8
BEAMS
62
5
10
48200.0
20
9150.0
30
0.0
11
52800.0
21
9150.0
31
0.0
0
TEXT
8
TEXT
62
7
10
54500.0
20
9600.0
30
0.0
40
250.0
1
+9.600
0
LINE
8
BEAMS
62
5
10
33200.0
20
12800.0
30
0.0
11
37800.0
21
12800.0
31
0.0
0
LINE
8
BEAMS
62
5
10
33200.0
20
12350.0
30
0.0
11
37800.0
21
12350.0
31
0.0
0
LINE
8
BEAMS
62
5
10
38200.0
20
12800.0
30
0.0
11
42800.0
21
12800.0
31
0.0
0
LINE
8
BEAMS
62
5
10
38200.0
20
12350.0
30
0.0
11
42800.0
21
12350.0
31
0.0
0
LINE
8
BEAMS
62
5
10
43200.0
20
12800.0
30
0.0
11
47800.0
21
12800.0
31
0.0
0
LINE
8
BEAMS
62
5
10
43200.0
20
12350.0
30
0.0
11
47800.0
21
12350.0
31
0.0
0
LINE
8
BEAMS
62
5
10
48200.0
20
12800.0
30
0.0
11
52800.0
21
12800.0
31
0.0
0
LINE
8
BEAMS
62
5
10
48200.0
20
12350.0
30
0.0
11
52800.0
21
12350.0
31
0.0
0
TEXT
8
TEXT
62
7
10
54500.0
20
12800.0
30
0.0
40
250.0
1
+12.800
0
LINE
8
BEAMS
62
5
10
33200.0
20
16000.0
30
0.0
11
37800.0
21
16000.0
31
0.0
0
LINE
8
BEAMS
62
5
10
33200.0
20
15550.0
30
0.0
11
37800.0
21
15550.0
31
0.0
0
LINE
8
BEAMS
62
5
10
38200.0
20
16000.0
30
0.0
11
42800.0
21
16000.0
31
0.0
0
LINE
8
BEAMS
62
5
10
38200.0
20
15550.0
30
0.0
11
42800.0
21
15550.0
31
0.0
0
LINE
8
BEAMS
62
5
10
43200.0
20
16000.0
30
0.0
11
47800.0
21
16000.0
31
0.0
0
LINE
8
BEAMS
62
5
10
43200.0
20
15550.0
30
0.0
11
47800.0
21
15550.0
31
0.0
0
LINE
8
BEAMS
62
5
10
48200.0
20
16000.0
30
0.0
11
52800.0
21
16000.0
31
0.0
0
LINE
8
BEAMS
62
5
10
48200.0
20
15550.0
30
0.0
11
52800.0
21
15550.0
31
0.0
0
TEXT
8
TEXT
62
7
10
54500.0
20
16000.0
30
0.0
40
250.0
1
+16.000
0
LINE
8
BEAMS
62
5
10
33200.0
20
19200.0
30
0.0
11
37800.0
21
19200.0
31
0.0
0
LINE
8
BEAMS
62
5
10
33200.0
20
18750.0
30
0.0
11
37800.0
21
18750.0
31
0.0
0
LINE
8
BEAMS
62
5
10
38200.0
20
19200.0
30
0.0
11
42800.0
21
19200.0
31
0.0
0
LINE
8
BEAMS
62
5
10
38200.0
20
18750.0
30
0.0
11
42800.0
21
18750.0
31
0.0
0
LINE
8
BEAMS
62
5
10
43200.0
20
19200.0
30
0.0
11
47800.0
21
19200.0
31
0.0
0
LINE
8
BEAMS
62
5
10
43200.0
20
18750.0
30
0.0
11
47800.0
21
18750.0
31
0.0
0
LINE
8
BEAMS
62
5
10
48200.0
20
19200.0
30
0.0
11
52800.0
21
19200.0
31
0.0
0
LINE
8
BEAMS
62
5
10
48200.0
20
18750.0
30
0.0
11
52800.0
21
18750.0
31
0.0
0
TEXT
8
TEXT
62
7
10
54500.0
20
19200.0
30
0.0
40
250.0
1
+19.200
0
LINE
8
GRID
62
8
10
31500.0
20
0.0
30
0.0
11
54500.0
21
0.0
31
0.0
0
TEXT
8
TEXT
62
7
10
54500.0
20
0.0
30
0.0
40
250.0
1
+0.000
0
LINE
8
DIMENSIONS
62
3
10
30600.0
20
0.0
30
0.0
11
30600.0
21
3200.0
31
0.0
0
LINE
8
DIMENSIONS
62
3
10
30350.0
20
0.0
30
0.0
11
30850.0
21
0.0
31
0.0
0
LINE
8
DIMENSIONS
62
3
10
30450.0
20
-150.0
30
0.0
11
30750.0
21
150.0
31
0.0
0
LINE
8
DIMENSIONS
62
3
10
30350.0
20
3200.0
30
0.0
11
30850.0
21
3200.0
31
0.0
0
LINE
8
DIMENSIONS
62
3
10
30450.0
20
3050.0
30
0.0
11
30750.0
21
3350.0
31
0.0
0
TEXT
8
DIMENSIONS
62
3
10
30150.0
20
1600.0
30
0.0
40
250.0
1
3200
72
1
73
2
11
30150.0
21
1600.0
31
0.0
0
LINE
8
DIMENSIONS
62
3
10
29400.0
20
0.0
30
0.0
11
29400.0
21
19200.0
31
0.0
0
LINE
8
DIMENSIONS
62
3
10
29150.0
20
0.0
30
0.0
11
29650.0
21
0.0
31
0.0
0
LINE
8
DIMENSIONS
62
3
10
29250.0
20
-150.0
30
0.0
11
29550.0
21
150.0
31
0.0
0
LINE
8
DIMENSIONS
62
3
10
29150.0
20
19200.0
30
0.0
11
29650.0
21
19200.0
31
0.0
0
LINE
8
DIMENSIONS
62
3
10
29250.0
20
19050.0
30
0.0
11
29550.0
21
19350.0
31
0.0
0
TEXT
8
DIMENSIONS
62
3
10
28950.0
20
9600.0
30
0.0
40
250.0
1
19200
72
1
73
2
11
28950.0
21
9600.0
31
0.0
0
TEXT
8
TEXT
62
7
10
33000.0
20
-2700.0
30
0.0
40
500.0
1
FRAME ELEVATION ON GRID 1
0
TEXT
8
TEXT
62
7
10
33000.0
20
-3500.0
30
0.0
40
300.0
1
G+5, storey height 3200 mm, total 19200 mm. SMRF, R = 5.
0
ENDSEC
0
EOF
